<?xml version="1.0" standalone="no"?><!DOCTYPE svg PUBLIC "-//W3C//DTD SVG 1.1//EN" "http://www.w3.org/Graphics/SVG/1.1/DTD/svg11.dtd"><svg t="1733465760499" class="icon" viewBox="0 0 1690 1024" version="1.1" xmlns="http://www.w3.org/2000/svg" p-id="1700" xmlns:xlink="http://www.w3.org/1999/xlink" width="330.078125" height="200"><path d="M781.890685 60.328621c-17.463548 28.576715-38.102287 61.916217-45.246466 73.029384-7.937976 11.906965-17.463548 28.576715-22.226334 37.30849-4.762786 8.731774-14.288358 25.401525-22.226334 37.308489-26.195322 40.48368-84.936349 137.326993-88.11154 145.26497-1.587595 3.968988-13.49456 23.020132-25.401524 41.277478-12.700762 18.257346-23.020132 34.927097-23.020132 38.102287 0 3.175191-10.319369 19.844941-22.226334 38.102287-11.906965 18.257346-26.98912 42.865073-32.545704 54.772038-6.350381 12.700762-14.288358 22.226334-18.257346 22.226334-3.968988 0-34.133299-19.051144-67.4728-42.865073l-61.122419-42.865073-65.885205 134.945601-65.885205 134.9456-33.339501-28.576715c-18.257346-15.875953-35.720894-26.195322-38.896085-23.020132-3.968988 3.968988-28.576715 60.328621-55.565836 125.420028-26.98912 65.885205-56.359633 133.358005-65.091407 150.821554-9.525572 17.463548-15.875953 36.514692-15.082155 41.277478 1.587595 5.556584-1.587595 10.319369-6.350382 10.319369-4.762786 0-6.350381 3.968988-3.968988 7.937977 3.175191 4.762786 120.657243 7.937976 326.250834 7.937976 342.920585 0 332.601215 0.793798 380.229074-41.277478 12.700762-12.700762 27.782918-22.226334 31.751906-22.226334 4.762786 0 38.896085-30.958108 76.998372-69.854193l68.266598-69.060396-11.113167-76.998372-11.906965-76.204574 41.277478-66.679003c23.020132-35.720894 44.452668-69.060396 48.421657-73.823181 7.144179-7.937976 0.793798 38.102287-8.731774 63.503812-25.401525 65.091407-30.164311 103.987492-16.669751 130.976612 4.762786 8.731774 11.906965 23.020132 15.875953 31.751906 4.762786 8.731774 7.937976 21.432537 7.937977 27.782918 0 6.350381 3.968988 18.257346 8.731774 26.98912 7.937976 11.906965 3.175191 23.813929-30.958109 73.823181l-40.48368 59.534824 26.195323 25.401525c13.49456 13.49456 29.370513 24.607727 33.339501 24.607727 4.762786 0 15.082155 7.144179 23.020132 15.875953 14.288358 15.082155 24.607727 15.875953 361.17793 15.875953 190.511436 0 348.477168-2.381393 351.652359-4.762786 2.381393-2.381393-7.144179-21.432537-21.432536-42.071275-14.288358-19.844941-28.576715-42.071275-31.751906-48.421657-6.350381-13.49456-16.669751-30.958108-46.834062-76.998372-11.906965-19.051144-21.432537-35.720894-21.432536-38.896085 0-2.381393-7.937976-15.875953-17.463548-29.370513-19.051144-26.195322-31.751906-46.834061-46.040264-73.029384-23.020132-42.865073-38.102287-63.503812-47.627859-63.503812-6.350381 0-22.226334 19.844941-35.720894 43.658871-13.49456 23.813929-27.782918 43.658871-31.751906 42.865073-8.731774-0.793798-20.638739-20.638739-130.182815-214.325365-19.844941-34.927097-54.772038-94.46192-77.79217-132.564208-23.020132-38.102287-42.071275-72.235586-42.071275-76.204574 0-3.175191-6.350381-11.906965-14.288358-19.051144-12.700762-11.906965-16.669751-10.319369-52.390645 23.020132-20.638739 19.844941-38.896085 34.927097-40.48368 33.339502-0.793798-1.587595-47.627859-78.585967-103.193694-171.460293-55.565835-92.080527-103.987492-168.285102-106.368885-168.285102-2.381393 0-19.051144 23.813929-36.514692 52.390645z m43.658871 96.049516c4.762786 12.700762 11.113167 29.370513 15.082155 38.102287 24.607727 55.565835 45.246466 111.131671 52.390645 138.914589 3.968988 12.700762 26.98912 70.647991 36.514692 88.905337 11.906965 23.813929 8.731774 40.48368-6.350381 34.133299-7.937976-3.175191-21.432537-7.937976-30.164311-10.31937-8.731774-2.381393-24.607727-8.731774-34.927097-14.288358-11.113167-6.350381-23.020132-7.937976-25.401525-4.762785-3.175191 3.175191-9.525572 32.545704-14.288357 65.091407-23.020132 153.202946-24.607727 159.553328-40.48368 148.44016-7.937976-5.556584-31.751906-30.164311-52.390645-55.565835-21.432537-24.607727-40.48368-42.071275-43.658871-38.896085-7.937976 8.731774-46.834061 130.182815-46.834061 146.852565 0 7.144179-3.175191 19.844941-7.144179 27.782918-4.762786 7.144179-9.525572 23.020132-12.700763 34.927096-6.350381 30.958108-20.638739 27.782918-42.865073-11.113167l-18.257346-32.545703-15.082155 19.051143c-7.937976 10.319369-15.082155 21.432537-15.082155 24.607727 0 11.113167-66.679003 117.482052-73.029384 117.482053-3.175191 0-7.144179-7.937976-7.144179-18.257346-1.587595-20.638739-3.968988-36.514692-14.288358-84.936349-3.968988-19.844941-5.556584-38.102287-3.968988-40.48368 1.587595-3.175191-2.381393-9.525572-9.525572-15.082155-9.525572-8.731774-15.875953-6.350381-38.896084 15.875953-15.082155 15.082155-27.782918 30.958108-27.782918 35.720894 0 4.762786-14.288358 23.020132-31.751906 39.689882l-31.751906 30.958109 4.762786-38.896085c3.175191-22.226334 8.731774-42.865073 11.906965-47.627859 3.968988-3.968988 7.144179-20.638739 7.144178-36.514692 0-16.669751 3.175191-31.751906 7.144179-34.133299 3.968988-2.381393 8.731774-18.257346 11.113167-34.133299 1.587595-16.669751 5.556584-38.896085 8.731774-50.009252 2.381393-11.113167 6.350381-29.370513 9.525572-42.071275 2.381393-11.906965 6.350381-21.432537 8.731774-21.432537 2.381393 0 26.98912 15.875953 54.772038 35.720895C436.588707 587.410261 462.78403 603.286214 466.753018 603.286214c7.937976 0 136.533196-184.954852 164.316113-236.5517 23.020132-42.865073 42.865073-69.060396 47.627859-63.503812 2.381393 2.381393-0.793798 26.195322-7.144178 53.184443-11.113167 48.421657-7.937976 59.534824 11.113167 36.514692 9.525572-11.113167 12.700762-10.319369 32.545703 8.731774 11.906965 11.113167 25.401525 18.257346 30.164311 15.875953 4.762786-3.175191 8.731774-31.751906 8.731774-68.266598 0-34.133299 3.968988-65.091407 7.937977-67.4728 4.762786-2.381393 7.937976-14.288358 7.937976-25.401525v-20.638739l18.257346 16.669751 17.463548 16.66975-2.381393-67.4728c-3.175191-69.060396 7.144179-88.111539 22.226335-45.246466z m305.612095 277.829177c5.556584 34.927097 23.813929 52.390645 63.503812 62.710015 21.432537 5.556584 34.133299 26.98912 38.896085 67.4728 0.793798 12.700762 4.762786 25.401525 7.144178 28.576715 3.175191 2.381393 5.556584 12.700762 5.556584 23.020132 0 11.906965 16.669751 32.545704 50.80305 61.916217l50.009251 44.452668 6.350382 72.235586c2.381393 39.689882 3.175191 73.823181 0.793797 76.998372-3.175191 2.381393-27.782918-17.463548-54.772038-44.452668l-50.009251-49.215454h-49.215455c-57.153431 0-80.96736-9.525572-80.96736-31.751906 0-7.937976-3.175191-17.463548-7.937976-19.844942-3.968988-2.381393-7.937976-13.49456-7.937977-23.813929s-3.175191-21.432537-7.937976-23.81393c-3.968988-2.381393-7.937976-12.700762-7.937977-22.226334-0.793798-28.576715-19.051144-45.246466-50.80305-45.246466-33.339501 0-34.133299-2.381393-19.844941-100.812301 9.525572-62.710014 21.432537-87.317741 69.854193-139.708387l19.844942-22.226334 9.525571 26.98912c4.762786 14.288358 11.906965 41.277478 15.082156 58.741026z m364.353121 373.878693c22.226334 33.339501 54.772038 87.317741 73.823181 118.27585l34.133299 57.947229h-119.069647c-65.885205 0-119.069647-1.587595-119.069648-3.175191s19.844941-18.257346 44.452669-37.30849l44.452668-34.133298-3.17519-81.761158c-0.793798-45.246466-0.793798-81.761158 1.587595-81.761158 2.381393 0 21.432537 27.782918 42.865073 61.916216z m-1308.972324-4.762786c20.638739 61.122419 42.865073 144.471172 39.689882 147.646363-1.587595 1.587595-16.669751-4.762786-34.927096-13.49456-40.48368-21.432537-41.277478-21.432537-82.554956 7.144179-19.844941 12.700762-37.30849 23.813929-39.689882 23.81393-6.350381 0 92.874325-206.387389 98.430908-206.387389 2.381393 0 11.113167 19.051144 19.051144 41.277477z" p-id="1701" fill="#ffffff"></path></svg>